<svg width="84" height="73" viewBox="0 0 84 73" fill="none" xmlns="http://www.w3.org/2000/svg">
<path fill-rule="evenodd" clip-rule="evenodd" d="M54 19.2328C54 20.3325 53.1043 21.2237 52 21.2237C50.8953 21.2237 50 20.3325 50 19.2328C50 18.1335 50.8953 17.2419 52 17.2419C53.1043 17.2419 54 18.1335 54 19.2328" fill="#E5D1C8"/>
<path fill-rule="evenodd" clip-rule="evenodd" d="M42 1.99109L32 19.2327Z" fill="#E5D1C8"/>
<path fill-rule="evenodd" clip-rule="evenodd" d="M31.9986 21.2242C31.6593 21.2242 31.3153 21.1383 31.0003 20.9571C30.0439 20.4073 29.7159 19.1898 30.2683 18.2375L40.2683 0.995585C40.8206 0.0432668 42.0439 -0.282247 43.0003 0.266912C43.9569 0.816735 44.2846 2.03418 43.7326 2.98649L33.7326 20.2284C33.3619 20.8672 32.6896 21.2242 31.9986 21.2242" fill="#E5D1C8"/>
</svg>
