<svg width="100" height="100" viewBox="0 0 100 100" fill="none" xmlns="http://www.w3.org/2000/svg">
<circle cx="50" cy="50" r="50" fill="#B6D9E1"/>
<path d="M61.2419 50.85C61.19 45.4086 65.6873 42.7942 65.8896 42.6697C63.3583 38.9712 59.4263 38.4628 58.0258 38.4058C54.68 38.0634 51.4951 40.3769 49.7936 40.3769C48.0922 40.3769 45.4727 38.4525 42.6975 38.5095C39.0457 38.5614 35.6792 40.6311 33.7962 43.8991C30.0095 50.4661 32.8314 60.2181 36.5299 65.5558C38.3402 68.165 40.4877 71.1062 43.32 70.9972C46.0484 70.8883 47.0755 69.2336 50.3642 69.2336C53.6529 69.2336 54.5815 70.9972 57.4604 70.9454C60.3912 70.8883 62.2482 68.2791 64.043 65.6596C66.1075 62.625 66.9634 59.6942 67.0153 59.5386C66.9478 59.5127 61.3041 57.3496 61.2419 50.85Z" fill="#0B1D28"/>
<path d="M55.8333 34.8679C57.3376 33.0472 58.3491 30.521 58.0741 28C55.9111 28.0882 53.2915 29.4421 51.7405 31.2628C50.3503 32.8708 49.1313 35.4437 49.4633 37.9128C51.865 38.0996 54.3341 36.6834 55.8333 34.8679Z" fill="#0B1D28"/>
</svg>
