<svg width="100" height="100" viewBox="0 0 100 100" fill="none" xmlns="http://www.w3.org/2000/svg">
<circle cx="50" cy="50" r="50" fill="#EFE4DF"/>
<path d="M75.0651 56.184C73.0736 46.6719 68.2231 38.1482 61.0377 31.5316C58.3423 29.0483 55.6089 28.4994 51.4266 28.4994H50.1357C49.3614 28.4994 48.6423 28.4929 47.8777 28.5363C44.7935 28.7142 41.4418 29.3033 38.9164 31.6303C31.7537 38.2295 26.9195 46.7305 24.9344 56.2144C23.7865 61.6995 27.0093 67.1271 32.4306 68.839C43.4734 72.367 56.4146 72.367 67.4834 68.9616C72.9675 67.2269 76.2271 61.7331 75.0651 56.1829V56.184ZM32.7479 67.8311C27.8465 66.283 24.9323 61.3827 25.9675 56.4325C27.9071 47.1666 32.632 38.8598 39.6311 32.4103C41.1007 31.0564 42.8561 30.2221 44.6787 29.9043C43.8383 30.348 43.0391 30.9056 42.3038 31.5826C35.1314 38.1915 30.2896 46.7045 28.3013 56.2014C27.2595 61.1787 29.7958 66.1073 34.3041 68.2911C33.7821 68.1468 33.2623 67.9939 32.7457 67.8311H32.7479ZM36.2014 67.7682C31.3325 66.231 28.4378 61.3632 29.4666 56.4466C31.4029 47.1938 36.1213 38.8989 43.1106 32.4591C44.5661 31.1182 46.3042 30.2905 48.1084 29.9726C47.3503 30.3968 46.628 30.9175 45.9588 31.5337C38.7756 38.1514 33.9272 46.6774 31.9368 56.1884C30.9112 61.092 33.337 65.9489 37.697 68.2098C37.1966 68.0709 36.6974 67.9244 36.2014 67.7671V67.7682ZM39.9192 67.7053C35.3307 65.5432 32.2064 61.3436 33.2287 56.4596C35.1618 47.2209 39.8098 38.9379 46.7883 32.5079C47.6579 31.6552 48.2135 31.3385 48.2135 31.3385C49.356 30.5758 50.7053 30.5357 51.7904 31.1746C52.4283 31.5576 52.7748 31.8646 53.2957 32.3452C60.297 38.7926 64.8324 47.1623 66.7719 56.4292C67.8083 61.3784 64.8941 66.2787 59.9959 67.8279C54.566 70.2526 45.3231 70.2526 39.9192 67.7053ZM61.8413 68.2282C66.3225 66.0574 68.8425 61.1571 67.8072 56.2112C65.8211 46.7273 60.9846 38.2263 53.8199 31.6292C53.1474 31.0097 52.4218 30.4901 51.6583 30.067C53.0282 30.1028 55.127 31.1985 56.4937 32.457C63.4852 38.8945 68.2047 47.1883 70.142 56.4422C71.1708 61.3578 68.2772 66.2255 63.4105 67.765C62.8906 67.9299 62.3676 68.0839 61.8423 68.2282H61.8413ZM67.0871 67.701C66.5878 67.8593 66.0853 68.0069 65.5807 68.1468C69.9146 65.8979 72.3253 61.0703 71.3051 56.197C69.3168 46.6991 64.4728 38.1872 57.2983 31.5804C56.6366 30.9707 55.923 30.4565 55.1725 30.0355C56.968 30.3491 58.6985 31.1714 60.1464 32.5058C67.1271 38.9336 71.8401 47.2155 73.7743 56.4552C74.7966 61.3371 71.9213 66.1713 67.0871 67.701Z" fill="#0B1D28"/>
</svg>
