<svg width="100" height="100" viewBox="0 0 100 100" fill="none" xmlns="http://www.w3.org/2000/svg">
<path d="M50 0C77.6142 0 100 22.3858 100 50C100 77.6142 77.6142 100 50 100C22.3858 100 0 77.6142 0 50C0 22.3858 22.3858 0 50 0ZM50 25C43.2104 25 42.36 25.0296 39.6934 25.1504C30.6145 25.5672 25.5691 30.6042 25.1523 39.6914C25.0294 42.3602 25 43.2104 25 50C25 56.7896 25.0296 57.6419 25.1504 60.3086C25.5671 69.3875 30.6042 74.4329 39.6914 74.8496C42.3602 74.9704 43.2104 75 50 75C56.7896 75 57.6419 74.9704 60.3086 74.8496C69.3792 74.4329 74.4372 69.3958 74.8477 60.3086C74.9706 57.6419 75 56.7896 75 50C75 43.2104 74.9704 42.36 74.8496 39.6934C74.4411 30.6228 69.3978 25.5691 60.3105 25.1523C57.6418 25.0294 56.7896 25 50 25ZM50 29.5059C56.675 29.5059 57.467 29.5315 60.1045 29.6523C66.8793 29.9608 70.0442 33.1755 70.3525 39.9004C70.4734 42.5355 70.4961 43.3274 70.4961 50.002C70.4961 56.679 70.4713 57.4691 70.3525 60.1045C70.042 66.8229 66.8854 70.0441 60.1045 70.3525C57.467 70.4734 56.6792 70.498 50 70.498C43.325 70.498 42.5329 70.4734 39.8975 70.3525C33.1063 70.042 29.9588 66.8125 29.6504 60.1025C29.5296 57.4671 29.5039 56.6771 29.5039 50C29.5039 43.325 29.5316 42.535 29.6504 39.8975C29.9609 33.175 33.1167 29.9588 39.8975 29.6504C42.535 29.5316 43.325 29.5059 50 29.5059ZM50 37.1621C42.9104 37.1621 37.1621 42.9104 37.1621 50C37.1621 57.0896 42.9104 62.8398 50 62.8398C57.0896 62.8398 62.8379 57.0917 62.8379 50C62.8379 42.9104 57.0896 37.1621 50 37.1621ZM50 41.667C54.6021 41.667 58.333 45.3979 58.333 50C58.333 54.6042 54.6021 58.333 50 58.333C45.3979 58.333 41.667 54.6042 41.667 50C41.667 45.3979 45.3979 41.667 50 41.667ZM63.3457 33.6562C61.6874 33.6563 60.3438 35 60.3438 36.6562C60.3438 38.3125 61.6874 39.6562 63.3457 39.6562C65.002 39.6562 66.3437 38.3125 66.3438 36.6562C66.3438 35 65.002 33.6562 63.3457 33.6562Z" fill="#EFE4DF"/>
</svg>
