<svg width="84" height="73" viewBox="0 0 84 73" fill="none" xmlns="http://www.w3.org/2000/svg">
<path fill-rule="evenodd" clip-rule="evenodd" d="M42.6347 39.9509C43.3347 39.9509 43.9014 39.8511 44.4347 39.6523V37.2961C44.4347 36.6656 44.8514 36.2342 45.468 36.2342C46.068 36.2342 46.5017 36.6656 46.5017 37.2961V39.6022C46.5017 41.0124 44.9847 42.0079 42.4847 42.0079C39.3677 42.0079 36.9844 39.5192 36.9844 36.4831C36.9844 33.4138 39.1677 30.9414 42.718 30.9414C44.7014 30.9414 46.4184 31.8539 46.4184 32.866C46.4184 33.4798 45.968 33.7785 45.4514 33.7785C44.668 33.7785 44.118 32.999 42.518 32.999C40.451 32.999 39.2177 34.5582 39.2177 36.4831C39.2177 38.3911 40.668 39.9509 42.6347 39.9509" fill="#0B1D28"/>
<path fill-rule="evenodd" clip-rule="evenodd" d="M24 36.4743C24 37.574 23.1043 38.4652 22 38.4652C20.8953 38.4652 20 37.574 20 36.4743C20 35.375 20.8953 34.4834 22 34.4834C23.1043 34.4834 24 35.375 24 36.4743" fill="#0B1D28"/>
<path fill-rule="evenodd" clip-rule="evenodd" d="M63.5178 37.5616L61.8844 33.5131L60.2511 37.5616H63.5178ZM66.1181 41.8421C65.5178 41.859 65.1011 41.5102 64.8344 40.8138L64.2678 39.4035H59.5178L58.9341 40.8303C58.6674 41.5102 58.3841 41.859 57.7341 41.8421C56.9674 41.8421 56.6008 41.1953 56.9674 40.316L60.2841 32.4347C60.6844 31.4721 61.1011 31.0908 61.9511 31.0908C62.8011 31.0908 63.2178 31.4721 63.6178 32.4347L66.9181 40.2828C67.3014 41.1953 66.9014 41.8421 66.1181 41.8421V41.8421Z" fill="#0B1D28"/>
<path fill-rule="evenodd" clip-rule="evenodd" d="M68.9254 56.3963C69.6421 56.3963 70.4591 57.3088 72.1257 57.3088C73.1091 57.3088 73.8257 56.8774 73.8257 56.1139C73.8257 54.0732 68.0587 54.9525 68.0587 51.2528C68.0587 49.4443 69.5921 48.1831 72.0257 48.1831C73.9924 48.1831 75.6761 48.9131 75.6761 50.0416C75.6761 50.5228 75.3257 50.8712 74.7927 50.8712C74.0257 50.8712 73.3591 50.1246 71.7591 50.1246C70.7924 50.1246 70.2757 50.5393 70.2757 51.1698C70.2757 53.0778 75.9757 52.215 75.9757 55.9815C75.9757 57.8895 74.4594 59.2502 71.9424 59.2502C69.8921 59.2502 68.0254 58.3872 68.0254 57.2258C68.0254 56.7613 68.3757 56.3963 68.9254 56.3963" fill="#0B1D28"/>
<path fill-rule="evenodd" clip-rule="evenodd" d="M37.4345 49.5599V58.0551C37.4345 58.6524 37.0012 59.0838 36.3845 59.0838C35.7845 59.0838 35.3512 58.6524 35.3512 58.0551V51.7665L32.8675 55.7158C32.5509 56.2135 32.2342 56.3794 31.7675 56.3794C31.3175 56.3794 30.9842 56.2135 30.6675 55.7158L28.2005 51.8V58.0551C28.2005 58.6524 27.7675 59.0838 27.1505 59.0838C26.5505 59.0838 26.1172 58.6524 26.1172 58.0551V49.7096C26.1172 48.8631 26.6172 48.3325 27.5005 48.3325C28.2839 48.3325 28.6842 48.7473 29.1675 49.5105L31.9009 53.9572L34.8512 49.1949C35.1845 48.6643 35.5345 48.3325 36.2345 48.3325C37.0012 48.3325 37.4345 48.8468 37.4345 49.5599" fill="#0B1D28"/>
<path fill-rule="evenodd" clip-rule="evenodd" d="M49.4491 48.3989H54.5328C55.1161 48.3989 55.5161 48.7971 55.5161 49.3778C55.5161 49.9585 55.1161 50.3404 54.5328 50.3404H50.5661V52.696H53.8661C54.4494 52.696 54.8494 53.0942 54.8494 53.6748C54.8494 54.2393 54.4494 54.654 53.8661 54.654H50.5661V57.0763H54.5328C55.1161 57.0763 55.5161 57.4748 55.5161 58.0718C55.5161 58.6362 55.1161 59.0344 54.5328 59.0344H49.4491C48.8824 59.0344 48.4824 58.6196 48.4824 58.0555V49.3778C48.4824 48.7971 48.8824 48.3989 49.4491 48.3989" fill="#0B1D28"/>
<path fill-rule="evenodd" clip-rule="evenodd" d="M54 19.2326C54 20.3323 53.1043 21.2235 52 21.2235C50.8953 21.2235 50 20.3323 50 19.2326C50 18.1333 50.8953 17.2417 52 17.2417C53.1043 17.2417 54 18.1333 54 19.2326" fill="#0B1D28"/>
<mask id="mask0_109_5606" style="mask-type:luminance" maskUnits="userSpaceOnUse" x="80" y="68" width="4" height="5">
<path fill-rule="evenodd" clip-rule="evenodd" d="M80 68.9673H84V72.9491H80V68.9673Z" fill="white"/>
</mask>
<g mask="url(#mask0_109_5606)">
<path fill-rule="evenodd" clip-rule="evenodd" d="M84 70.9582C84 72.0575 83.1043 72.9491 82 72.9491C80.8953 72.9491 80 72.0575 80 70.9582C80 69.8585 80.8953 68.9673 82 68.9673C83.1043 68.9673 84 69.8585 84 70.9582" fill="#0B1D28"/>
</g>
<path fill-rule="evenodd" clip-rule="evenodd" d="M14 53.7165C14 54.8158 13.1043 55.7074 12 55.7074C10.8953 55.7074 10 54.8158 10 53.7165C10 52.6168 10.8953 51.7256 12 51.7256C13.1043 51.7256 14 52.6168 14 53.7165" fill="#0B1D28"/>
<path fill-rule="evenodd" clip-rule="evenodd" d="M42 1.99121L32 19.2328Z" fill="#0B1D28"/>
<path fill-rule="evenodd" clip-rule="evenodd" d="M31.9986 21.2241C31.6593 21.2241 31.3153 21.1382 31.0003 20.957C30.0439 20.4072 29.7159 19.1897 30.2683 18.2374L40.2683 0.995493C40.8206 0.0431753 42.0439 -0.282338 43.0003 0.266821C43.9569 0.816644 44.2846 2.03408 43.7326 2.9864L33.7326 20.2283C33.3619 20.8671 32.6896 21.2241 31.9986 21.2241" fill="#0B1D28"/>
<mask id="mask1_109_5606" style="mask-type:luminance" maskUnits="userSpaceOnUse" x="0" y="68" width="64" height="5">
<path fill-rule="evenodd" clip-rule="evenodd" d="M0 68.9673H64V72.949H0V68.9673Z" fill="white"/>
</mask>
<g mask="url(#mask1_109_5606)">
<path fill-rule="evenodd" clip-rule="evenodd" d="M62 72.9491H2C0.895667 72.9491 0 72.0575 0 70.9582C0 69.8589 0.895667 68.9673 2 68.9673H62C63.1043 68.9673 64 69.8589 64 70.9582C64 72.0575 63.1043 72.9491 62 72.9491" fill="#0B1D28"/>
</g>
</svg>
