<svg width="350" height="145" viewBox="0 0 350 145" fill="none" xmlns="http://www.w3.org/2000/svg">
<path d="M79.4104 66.1317L97.6735 0H128.817L147.945 66.1317H124.395L121.896 53.4436H104.786L101.999 66.1317H79.4104ZM106.805 41.6206H119.589L113.341 12.688L106.805 41.6206ZM203.198 67.6696C198.584 67.6696 194.771 66.9968 191.759 65.651C188.748 64.2413 186.344 62.3188 184.55 59.8838C182.756 57.4487 181.41 54.5971 180.513 51.3289C179.616 48.0608 179.007 44.5363 178.687 40.7556H174.169V66.1317H153.118V0H180.321C190.83 0 198.392 1.85835 203.006 5.57505C207.683 9.22767 210.022 14.194 210.022 20.4739C210.022 24.2547 208.997 27.651 206.947 30.6628C204.896 33.6105 201.596 36.0776 197.046 38.0642C197.302 39.4739 197.527 40.6274 197.719 41.5245C197.911 42.4217 198.199 43.4149 198.584 44.5043C199.417 46.8112 200.442 48.4132 201.66 49.3104C202.941 50.2075 204.672 50.6561 206.85 50.6561C208.26 50.6561 209.67 50.4638 211.08 50.0794L212.233 65.8433C210.952 66.3559 209.574 66.7725 208.1 67.0929C206.69 67.4774 205.056 67.6696 203.198 67.6696ZM174.169 27.5869H177.822C182.564 27.5869 185.896 27.0742 187.818 26.049C189.805 24.9596 190.798 23.1333 190.798 20.57C190.798 18.3913 189.997 16.8213 188.395 15.8601C186.793 14.8348 184.262 14.3221 180.801 14.3221H174.169V27.5869ZM227.518 66.1317V15.1872H212.619V0H264.813V15.1872H249.914V66.1317H227.518ZM60.7046 144.23V78.0027H83.1009C93.9947 78.0027 102.197 79.7969 107.708 83.3855C113.283 86.9099 116.071 92.1325 116.071 99.0533C116.071 103.859 114.853 107.961 112.418 111.357C110.047 114.689 106.683 117.252 102.325 119.047C97.9677 120.777 92.8412 121.642 86.9458 121.642H81.9474V144.23H60.7046ZM86.0807 108.281C89.477 108.281 92.1043 107.576 93.9626 106.166C95.821 104.757 96.7502 102.642 96.7502 99.8223C96.7502 97.1949 95.853 95.2405 94.0588 93.9589C92.2645 92.6132 89.6692 91.9403 86.2729 91.9403H81.9474V108.281H86.0807ZM122.939 144.23V78.0988H143.702V129.043H167.156L166.194 144.23H122.939ZM168.633 144.23L186.896 78.0988H218.039L237.167 144.23H213.618L211.118 131.542H194.009L191.221 144.23H168.633ZM196.027 119.719H208.812L202.564 90.7868L196.027 119.719ZM250.049 144.23V125.871L231.017 78.0988H251.683L261.007 107.32L270.139 78.0988H290.709L270.715 125.871V144.23H250.049Z" fill="#E5D1C8"/>
<path d="M260.088 63.9159V54.9606H262.795L265.034 59.3081L267.221 54.9606H269.928V63.9159H267.221V59.23L265.568 62.3539H264.461L262.795 59.23V63.9159H260.088ZM271.363 63.9159V54.9606H277.65V56.9391H274.526V58.5271H277.376V60.1672H274.526V61.8723H277.65V63.9159H271.363ZM278.824 63.9159V54.9606H285.111V56.9391H281.987V58.5271H284.838V60.1672H281.987V61.8723H285.111V63.9159H278.824ZM287.692 63.9159V57.0172H285.674V54.9606H292.742V57.0172H290.725V63.9159H287.692ZM296.29 64.1242C295.744 64.1242 295.188 64.0548 294.624 63.9159C294.06 63.7858 293.583 63.6079 293.192 63.3822L293.661 61.2606C294.164 61.5296 294.633 61.7075 295.067 61.7942C295.509 61.8723 295.917 61.9114 296.29 61.9114C296.638 61.9114 296.898 61.855 297.071 61.7422C297.254 61.6294 297.345 61.4775 297.345 61.2866C297.345 61.113 297.245 60.9785 297.045 60.8831C296.846 60.779 296.585 60.6835 296.264 60.5967C295.952 60.5099 295.618 60.4102 295.262 60.2973C294.906 60.1759 294.568 60.0197 294.247 59.8288C293.934 59.6292 293.678 59.3688 293.479 59.0478C293.279 58.718 293.179 58.3058 293.179 57.8112C293.179 57.1864 293.331 56.6484 293.635 56.1972C293.939 55.7372 294.373 55.3858 294.937 55.1428C295.501 54.8912 296.165 54.7653 296.928 54.7653C297.44 54.7653 297.939 54.8348 298.425 54.9736C298.92 55.1038 299.315 55.2817 299.61 55.5073L299.167 57.4207C298.724 57.2385 298.325 57.1083 297.97 57.0302C297.622 56.9434 297.293 56.9 296.98 56.9C296.616 56.9 296.338 56.9521 296.147 57.0562C295.956 57.1604 295.861 57.2992 295.861 57.4728C295.861 57.6376 295.961 57.7722 296.16 57.8763C296.36 57.9804 296.616 58.0802 296.928 58.1757C297.241 58.2711 297.575 58.3796 297.93 58.5011C298.286 58.6226 298.62 58.7831 298.933 58.9827C299.245 59.1823 299.501 59.4426 299.701 59.7637C299.9 60.0847 300 60.4883 300 60.9742C300 61.9808 299.67 62.7575 299.011 63.3042C298.36 63.8508 297.453 64.1242 296.29 64.1242Z" fill="#E5D1C8"/>
<path d="M26.0306 63.9159L24 54.9606H26.9287L27.7748 60.5447L28.6469 56.4835H31.6797L32.5648 60.5447L33.4109 54.9606H36.3396L34.309 63.9159H31.2762L30.1698 59.0087L29.0634 63.9159H26.0306ZM37.3567 63.9159V54.9606H40.2854V58.3319H43.0579V54.9606H45.9996V63.9159H43.0579V60.3885H40.2854V63.9159H37.3567ZM47.4368 63.9159V54.9606H53.7238V56.9391H50.5998V58.5271H53.4504V60.1672H50.5998V61.8723H53.7238V63.9159H47.4368ZM61.68 64.1242C61.0552 64.1242 60.5389 64.0331 60.131 63.8508C59.7232 63.6599 59.3978 63.3996 59.1548 63.0699C58.9118 62.7401 58.7296 62.3539 58.6081 61.9114C58.4866 61.4688 58.4042 60.9916 58.3608 60.4796H57.749V63.9159H54.8984V54.9606H58.5821C60.0052 54.9606 61.0292 55.2122 61.654 55.7156C62.2874 56.2102 62.6042 56.8827 62.6042 57.7331C62.6042 58.2451 62.4653 58.705 62.1876 59.1128C61.91 59.512 61.4631 59.8461 60.8469 60.1151C60.8817 60.306 60.912 60.4622 60.9381 60.5837C60.9641 60.7052 61.0031 60.8397 61.0552 60.9872C61.168 61.2996 61.3069 61.5166 61.4717 61.638C61.6453 61.7595 61.8796 61.8203 62.1746 61.8203C62.3655 61.8203 62.5564 61.7942 62.7473 61.7422L62.9035 63.8769C62.73 63.9463 62.5434 64.0027 62.3438 64.0461C62.1529 64.0982 61.9316 64.1242 61.68 64.1242ZM57.749 58.6963H58.2436C58.8858 58.6963 59.337 58.6269 59.5974 58.4881C59.8664 58.3405 60.0009 58.0932 60.0009 57.7461C60.0009 57.4511 59.8924 57.2385 59.6755 57.1083C59.4585 56.9695 59.1158 56.9 58.6472 56.9H57.749V58.6963ZM63.6947 63.9159V54.9606H69.9817V56.9391H66.8577V58.5271H69.7083V60.1672H66.8577V61.8723H69.9817V63.9159H63.6947Z" fill="#E5D1C8"/>
</svg>
