<svg width="276" height="145" viewBox="0 0 276 145" fill="none" xmlns="http://www.w3.org/2000/svg">
<path d="M55.4105 66.1317L73.6736 1.90976e-06H104.817L123.945 66.1317H100.395L97.8962 53.4436H80.7865L77.999 66.1317H55.4105ZM82.8051 41.6206H95.5893L89.3414 12.688L82.8051 41.6206ZM179.198 67.6696C174.584 67.6696 170.771 66.9968 167.759 65.651C164.748 64.2413 162.344 62.3188 160.55 59.8838C158.756 57.4487 157.41 54.5971 156.513 51.3289C155.616 48.0608 155.007 44.5363 154.687 40.7556H150.169V66.1317H129.118V1.90976e-06H156.321C166.83 1.90976e-06 174.392 1.85835 179.006 5.57505C183.683 9.22767 186.022 14.194 186.022 20.4739C186.022 24.2547 184.997 27.651 182.947 30.6628C180.896 33.6105 177.596 36.0776 173.046 38.0642C173.302 39.4739 173.527 40.6274 173.719 41.5245C173.911 42.4217 174.199 43.4149 174.584 44.5043C175.417 46.8112 176.442 48.4132 177.66 49.3104C178.941 50.2075 180.672 50.6561 182.85 50.6561C184.26 50.6561 185.67 50.4638 187.08 50.0794L188.233 65.8433C186.952 66.3559 185.574 66.7725 184.1 67.0929C182.69 67.4774 181.056 67.6696 179.198 67.6696ZM150.169 27.5869H153.822C158.564 27.5869 161.896 27.0742 163.818 26.049C165.805 24.9596 166.798 23.1333 166.798 20.57C166.798 18.3913 165.997 16.8213 164.395 15.8601C162.793 14.8348 160.262 14.3221 156.801 14.3221H150.169V27.5869ZM203.518 66.1317V15.1872H188.619V1.90976e-06H240.813V15.1872H225.914V66.1317H203.518ZM36.7047 144.23V78.0027H59.101C69.9948 78.0027 78.1972 79.7969 83.7081 83.3855C89.2832 86.9099 92.0707 92.1325 92.0707 99.0533C92.0707 103.859 90.8532 107.961 88.4181 111.357C86.0471 114.689 82.6828 117.252 78.3253 119.047C73.9678 120.777 68.8413 121.642 62.9459 121.642H57.9475V144.23H36.7047ZM62.0808 108.281C65.4771 108.281 68.1044 107.576 69.9627 106.166C71.8211 104.757 72.7503 102.642 72.7503 99.8223C72.7503 97.1949 71.8531 95.2405 70.0589 93.9589C68.2646 92.6132 65.6693 91.9403 62.273 91.9403H57.9475V108.281H62.0808ZM98.9396 144.23V78.0988H119.702V129.043H143.156L142.194 144.23H98.9396ZM144.633 144.23L162.896 78.0988H194.039L213.167 144.23H189.618L187.118 131.542H170.009L167.221 144.23H144.633ZM172.027 119.719H184.812L178.564 90.7868L172.027 119.719ZM226.049 144.23V125.871L207.017 78.0988H227.683L237.007 107.32L246.139 78.0988H266.709L246.715 125.871V144.23H226.049Z" fill="#E5D1C8"/>
<path d="M236.088 63.9159V54.9606H238.795L241.034 59.3081L243.221 54.9606H245.928V63.9159H243.221V59.23L241.568 62.3539H240.461L238.795 59.23V63.9159H236.088ZM247.363 63.9159V54.9606H253.65V56.9391H250.526V58.5271H253.376V60.1672H250.526V61.8723H253.65V63.9159H247.363ZM254.824 63.9159V54.9606H261.111V56.9391H257.987V58.5271H260.838V60.1672H257.987V61.8723H261.111V63.9159H254.824ZM263.692 63.9159V57.0172H261.674V54.9606H268.742V57.0172H266.725V63.9159H263.692ZM272.29 64.1242C271.744 64.1242 271.188 64.0548 270.624 63.9159C270.06 63.7858 269.583 63.6079 269.192 63.3822L269.661 61.2606C270.164 61.5296 270.633 61.7075 271.067 61.7942C271.509 61.8723 271.917 61.9114 272.29 61.9114C272.638 61.9114 272.898 61.855 273.071 61.7422C273.254 61.6294 273.345 61.4775 273.345 61.2866C273.345 61.113 273.245 60.9785 273.045 60.8831C272.846 60.779 272.585 60.6835 272.264 60.5967C271.952 60.5099 271.618 60.4102 271.262 60.2973C270.906 60.1759 270.568 60.0197 270.247 59.8288C269.934 59.6292 269.678 59.3688 269.479 59.0478C269.279 58.718 269.179 58.3058 269.179 57.8112C269.179 57.1864 269.331 56.6484 269.635 56.1972C269.939 55.7372 270.373 55.3858 270.937 55.1428C271.501 54.8912 272.165 54.7653 272.928 54.7653C273.44 54.7653 273.939 54.8348 274.425 54.9736C274.92 55.1038 275.315 55.2817 275.61 55.5073L275.167 57.4207C274.724 57.2385 274.325 57.1083 273.97 57.0302C273.622 56.9434 273.293 56.9 272.98 56.9C272.616 56.9 272.338 56.9521 272.147 57.0562C271.956 57.1604 271.861 57.2992 271.861 57.4728C271.861 57.6376 271.961 57.7722 272.16 57.8763C272.36 57.9804 272.616 58.0802 272.928 58.1757C273.241 58.2711 273.575 58.3796 273.93 58.5011C274.286 58.6226 274.62 58.7831 274.933 58.9827C275.245 59.1823 275.501 59.4426 275.701 59.7637C275.9 60.0847 276 60.4883 276 60.9742C276 61.9808 275.67 62.7575 275.011 63.3042C274.36 63.8508 273.453 64.1242 272.29 64.1242Z" fill="#E5D1C8"/>
<path d="M2.03074 63.9159L0.000172118 54.9606H2.92888L3.77495 60.5447L4.64705 56.4835H7.67989L8.56501 60.5447L9.41108 54.9606H12.3398L10.3092 63.9159H7.27638L6.16998 59.0087L5.06358 63.9159H2.03074ZM13.3569 63.9159V54.9606H16.2856V58.3319H19.0581V54.9606H21.9998V63.9159H19.0581V60.3885H16.2856V63.9159H13.3569ZM23.437 63.9159V54.9606H29.724V56.9391H26.6V58.5271H29.4506V60.1672H26.6V61.8723H29.724V63.9159H23.437ZM37.6802 64.1242C37.0554 64.1242 36.5391 64.0331 36.1312 63.8508C35.7234 63.6599 35.398 63.3996 35.155 63.0699C34.912 62.7401 34.7298 62.3539 34.6083 61.9114C34.4868 61.4688 34.4044 60.9916 34.361 60.4796H33.7492V63.9159H30.8986V54.9606H34.5823C36.0054 54.9606 37.0294 55.2122 37.6542 55.7156C38.2876 56.2102 38.6044 56.8827 38.6044 57.7331C38.6044 58.2451 38.4655 58.705 38.1878 59.1128C37.9102 59.512 37.4633 59.8461 36.8471 60.1151C36.8819 60.306 36.9122 60.4622 36.9383 60.5837C36.9643 60.7052 37.0033 60.8397 37.0554 60.9872C37.1682 61.2996 37.3071 61.5166 37.4719 61.638C37.6455 61.7595 37.8798 61.8203 38.1748 61.8203C38.3657 61.8203 38.5566 61.7942 38.7475 61.7422L38.9037 63.8769C38.7302 63.9463 38.5436 64.0027 38.344 64.0461C38.1531 64.0982 37.9318 64.1242 37.6802 64.1242ZM33.7492 58.6963H34.2438C34.886 58.6963 35.3372 58.6269 35.5976 58.4881C35.8666 58.3405 36.0011 58.0932 36.0011 57.7461C36.0011 57.4511 35.8926 57.2385 35.6757 57.1083C35.4587 56.9695 35.116 56.9 34.6474 56.9H33.7492V58.6963ZM39.6949 63.9159V54.9606H45.9819V56.9391H42.8579V58.5271H45.7085V60.1672H42.8579V61.8723H45.9819V63.9159H39.6949Z" fill="#E5D1C8"/>
</svg>
